<svg xmlns="http://www.w3.org/2000/svg" xmlns:xlink="http://www.w3.org/1999/xlink" aria-hidden="true" role="img" class="iconify iconify--logos" width="31.88" height="32" preserveAspectRatio="xMidYMid meet" viewBox="0 0 256 257"><defs><linearGradient id="IconifyId1813088fe1fbc01fb466" x1="-.828%" x2="57.636%" y1="7.652%" y2="78.411%"><stop offset="0%" stop-color="#FF00FF"></stop><stop offset="100%" stop-color="#FF0000"></stop></linearGradient><linearGradient id="IconifyId1813088fe1fbc01fb467" x1="43.376%" x2="50.316%" y1="2.242%" y2="89.03%"><stop offset="0%" stop-color="#2121FF"></stop><stop offset="100%" stop-color="#21FFFF"></stop></linearGradient></defs><path fill="url(#IconifyId1813088fe1fbc01fb466)" d="M128.001 0C92.741 0 64 28.655 64 64c0 17.888 6.156 34.297 16.568 47.881C34.769 129.294 0 176.788 0 232c0 13.255 10.745 24 24 24h80v-67.211c0-11.046 8.954-20 20-20s20 8.954 20 20V256h80c13.255 0 24-10.745 24-24c0-55.212-34.769-102.706-80.568-120.119C193.845 98.297 200 81.888 200 64c0-35.345-28.741-64-64-64Z"></path><path fill="url(#IconifyId1813088fe1fbc01fb467)" d="M128.001 128C110.909 128 97 114.091 97 97s13.909-31 31.001-31S159 79.909 159 97s-13.909 31-31 31Z"></path></svg>